<?xml version="1.0" encoding="UTF-8"?>
<svg id="Layer_1" data-name="Layer 1" xmlns="http://www.w3.org/2000/svg" viewBox="0 0 653.62 231.94">
  <defs>
    <style>
      .cls-1 {
        fill: #3f3f41;
      }

      .cls-2 {
        fill: #022484;
      }

      .cls-3 {
        fill: none;
      }

      .cls-4 {
        fill: #232323;
        stroke: #232323;
        stroke-miterlimit: 10;
        stroke-width: .75px;
      }

      .cls-5 {
        fill: #324fc3;
      }
    </style>
  </defs>
  <path class="cls-5" d="M138.82,69.42c-3.21-2.01-6.77-3.15-10.4-3.41,1.95,3.36,3.01,7.23,3.01,11.28v4.37l17.97,8.93v-2.07c0-7.82-3.95-14.96-10.58-19.1ZM131.43,92.32v42.37c0,4.22-1.21,8.29-3.35,11.78-.07.11-.13.21-.2.32-2.2,3.45-5.34,6.33-9.14,8.17l-40.61,19.73c1.74,2.61,4.04,4.85,6.8,6.58,3.66,2.3,7.79,3.45,11.94,3.45,3.35,0,6.71-.75,9.85-2.28l29.99-16.25c7.71-3.75,12.69-11.7,12.69-20.27v-44.67l-17.97-8.93Z"/>
  <path class="cls-2" d="M101.12,77.82v-8.04c0-.18,0-.74-.62-1.13-.27-.16-.51-.22-.71-.22-.28,0-.49.1-.58.15l-45.26,21.98c-.45.22-.75.69-.75,1.2v57.4c0,.19,0,.74.63,1.13.62.39,1.12.15,1.28.07l7.2-3.5,12.04-5.84,21.2-10.3,4.82-2.34c.46-.22.75-.69.75-1.2v-15.57l9.11,4.52,1.49.74,10.6,5.27v5.04c0,8.57-4.98,16.53-12.69,20.27l-14.08,6.84-21.08,10.24-10.09,4.9c-3.14,1.53-6.51,2.28-9.86,2.28s-6.34-.68-9.29-2.03c-.91-.41-1.79-.89-2.65-1.42-6.63-4.14-10.58-11.28-10.58-19.1v-57.4c0-8.57,4.98-16.52,12.69-20.27l45.25-21.98c7.03-3.41,15.18-2.98,21.81,1.17,2.58,1.62,4.74,3.68,6.43,6.07,2.05,2.86,3.39,6.19,3.9,9.74.16,1.08.24,2.18.24,3.29v18.58l-10.6-5.27-1.49-.74-7.31-3.64-1.8-.89Z"/>
  <line class="cls-3" x1="102.92" y1="78.71" x2="101.12" y2="77.82"/>
  <path class="cls-2" d="M199.99,78.16c1.67-1.67,3.68-2.99,5.97-3.91,2.3-.92,4.86-1.39,7.62-1.39,2.92,0,5.65.6,8.14,1.77,2.49,1.17,4.75,2.94,6.73,5.25l.67.79,10.79-9.86-.6-.73c-3.05-3.72-6.88-6.58-11.39-8.5-4.49-1.91-9.55-2.88-15.04-2.88-4.89,0-9.51.81-13.72,2.42-4.22,1.61-7.94,3.93-11.08,6.91-3.13,2.98-5.6,6.52-7.33,10.54-1.73,4.01-2.61,8.48-2.61,13.27s.88,9.26,2.61,13.27c1.73,4.01,4.18,7.56,7.28,10.54,3.1,2.98,6.82,5.31,11.04,6.92,4.21,1.61,8.83,2.42,13.72,2.42,5.56,0,10.65-.98,15.14-2.92,4.51-1.95,8.34-4.82,11.39-8.54l.6-.73-10.79-9.86-.67.79c-1.97,2.31-4.24,4.09-6.73,5.3-2.48,1.2-5.22,1.81-8.13,1.81-2.76,0-5.32-.47-7.62-1.39-2.29-.92-4.3-2.24-5.97-3.91-1.67-1.67-2.99-3.68-3.91-5.97-.92-2.3-1.39-4.89-1.39-7.71s.47-5.41,1.39-7.71c.92-2.29,2.24-4.3,3.91-5.97Z"/>
  <path class="cls-2" d="M300.98,95.81c2.29-3.5,3.45-7.73,3.45-12.58,0-7.26-2.54-13.06-7.55-17.24-4.96-4.13-11.95-6.22-20.79-6.22h-27.55v64.15h16.47v-17.4h11.54l12.06,17.4h17.88l-14.25-20.57c3.7-1.8,6.64-4.33,8.74-7.54ZM265,73.48h10.63c4.12,0,7.25.86,9.31,2.57,2.03,1.68,3.01,4.03,3.01,7.18s-.99,5.52-3.02,7.23c-2.05,1.73-5.18,2.61-9.3,2.61h-10.63v-19.58Z"/>
  <polygon class="cls-2" points="352.17 97.4 329.47 59.76 316.01 59.76 316.01 123.91 331.42 123.91 331.42 89.82 348.15 117.26 355.66 117.26 372.42 89.42 372.57 123.91 387.97 123.91 387.97 59.76 374.42 59.76 352.17 97.4"/>
  <path class="cls-5" d="M423.96,106.36c0,5-4.07,9.07-9.07,9.07s-9.07-4.07-9.07-9.17v-1h-8.49v1.1c0,9.68,7.88,17.56,17.55,17.56s17.56-7.88,17.56-17.55v-42.99h-8.49v42.99Z"/>
  <path class="cls-5" d="M471.8,108.94h-.54s-.3.45-.3.45c-1.07,1.65-2.45,3.03-4.09,4.12-5.25,3.48-12.22,3.05-17.03-1.01l29.7-19.59-.37-.78c-.45-.95-.97-1.88-1.54-2.76-.73-1.1-1.52-2.1-2.43-3.05-4.25-4.49-9.99-6.96-16.17-6.96-12.28,0-22.27,9.99-22.27,22.27,0,3.06.61,6.03,1.82,8.83.51,1.19,1.13,2.35,1.85,3.44.73,1.1,1.53,2.1,2.43,3.06,4.25,4.49,9.99,6.96,16.16,6.96,8.96,0,17-5.33,20.5-13.58l.16-.37-.15-.38q-.25-.65-7.74-.64ZM468.22,90.75l-22.8,15.04c-.41-1.34-.62-2.74-.62-4.16,0-7.85,6.39-14.24,14.24-14.24,3.36,0,6.62,1.19,9.18,3.36Z"/>
  <path class="cls-5" d="M499.23,108.81h-.04c.04-.43.04-1.04.04-1.91v-19.46h12.03v-8.15h-6.93l-5.1,4.82v-20.76h-8.15v15.93h-7.71v8.15h7.71v21.37c0,8.33,6.77,15.1,15.1,15.1h5.11v-8.15h-5.11c-3.83,0-6.95-3.12-6.95-6.95Z"/>
  <path class="cls-5" d="M531.1,108.82v-21.37h12.03v-8.15h-6.93l-5.1,4.82v-20.76h-8.15v15.93h-7.71v8.15h7.71v21.37c0,8.33,6.77,15.1,15.1,15.1h5.11v-8.15h-5.11c-3.83,0-6.95-3.12-6.95-6.95Z"/>
  <polygon class="cls-5" points="587.28 79.34 571.44 113.34 555.6 79.34 546.55 79.34 566.92 123.05 558.24 141.67 567.29 141.67 596.33 79.34 587.28 79.34"/>
  <g>
    <path class="cls-4" d="M300.77,165.16h-8.55l-1.57,4.36h-2.7l7.08-19.48h2.95l7.06,19.48h-2.7l-1.57-4.36h0ZM296.5,153.19l-3.54,9.9h7.08l-3.54-9.9Z"/>
    <path class="cls-4" d="M327.44,169.57h-7.31v-19.59h7.03c4.13,0,6.21,2.25,6.21,4.97,0,2.48-1.54,3.91-3.43,4.52,2.14.37,3.88,2.42,3.88,4.84,0,2.95-2.33,5.26-6.38,5.26h0ZM326.93,152.09h-4.24v6.35h4.3c2.39,0,3.77-1.18,3.77-3.17s-1.32-3.18-3.82-3.18h0ZM327.13,160.55h-4.44v6.92h4.52c2.53,0,4.05-1.26,4.05-3.4s-1.63-3.51-4.13-3.51h0Z"/>
    <path class="cls-4" d="M339.18,149.92c0-.98.76-1.74,1.74-1.74.93,0,1.69.76,1.69,1.74s-.76,1.74-1.69,1.74c-.98,0-1.74-.76-1.74-1.74h0ZM339.6,154.17h2.56v15.4h-2.56v-15.4Z"/>
    <path class="cls-4" d="M358.18,156.25l-7.5,11.22h7.56v2.11h-10.49v-2.11l7.48-11.22h-7.42v-2.08h10.37v2.08h0Z"/>
    <path class="cls-4" d="M364.36,156.28h-2v-2.11h2v-3.88h2.56v3.88h4.02v2.11h-4.02v9.08c0,1.52.56,2.05,2.14,2.05h1.88v2.17h-2.3c-2.73,0-4.27-1.13-4.27-4.22v-9.08h0Z"/>
    <path class="cls-4" d="M382.94,169.83c-4.39,0-7.62-3.09-7.62-7.98s3.12-7.93,7.62-7.93,7.39,3.15,7.39,7.36c0,.56-.03,1.01-.08,1.55h-12.31c.2,3.12,2.39,4.83,5,4.83,2.3,0,3.76-1.18,4.33-2.84h2.76c-.79,2.81-3.26,5-7.08,5h0ZM377.96,160.75h9.73c.03-3.01-2.22-4.67-4.86-4.67-2.5,0-4.58,1.66-4.86,4.67h0Z"/>
    <path class="cls-4" d="M402.5,153.92c3.82,0,6.32,1.97,7.11,5.2h-2.75c-.53-1.86-2.08-3.04-4.36-3.04-2.81,0-4.89,2-4.89,5.76s2.08,5.82,4.89,5.82c2.28,0,3.79-1.09,4.36-3.03h2.75c-.79,3.06-3.29,5.2-7.11,5.2-4.39,0-7.51-3.09-7.51-7.98s3.12-7.93,7.51-7.93h0Z"/>
    <path class="cls-4" d="M415.25,148.77h2.56v7.62c1.01-1.63,2.93-2.5,5.09-2.5,3.43,0,6.16,2.19,6.16,6.6v9.08h-2.53v-8.71c0-3.15-1.72-4.75-4.3-4.75s-4.41,1.63-4.41,4.95v8.52h-2.56v-20.8h0Z"/>
    <path class="cls-4" d="M454.07,149.73c4.24,0,7.62,2.13,9.08,5.93h-3.06c-1.07-2.36-3.15-3.68-6.01-3.68-4.1,0-7.17,2.98-7.17,7.79s3.06,7.76,7.17,7.76c2.87,0,4.95-1.32,6.01-3.65h3.06c-1.46,3.76-4.83,5.87-9.08,5.87-5.48,0-9.79-4.1-9.79-9.98s4.3-10.03,9.79-10.03Z"/>
    <path class="cls-4" d="M475.9,169.83c-4.36,0-7.68-3.09-7.68-7.98s3.43-7.93,7.79-7.93,7.79,3.06,7.79,7.93-3.51,7.98-7.9,7.98h0ZM475.9,167.58c2.67,0,5.28-1.83,5.28-5.73s-2.56-5.71-5.2-5.71-5.14,1.83-5.14,5.71,2.39,5.73,5.06,5.73h0Z"/>
    <path class="cls-4" d="M511.65,160.86c0-3.15-1.69-4.75-4.22-4.75s-4.36,1.66-4.36,4.98v8.49h-2.53v-8.71c0-3.15-1.69-4.75-4.22-4.75s-4.36,1.66-4.36,4.98v8.49h-2.56v-15.4h2.56v2.22c1.01-1.63,2.84-2.5,4.86-2.5,2.53,0,4.64,1.13,5.65,3.43.9-2.22,3.09-3.43,5.45-3.43,3.51,0,6.24,2.19,6.24,6.6v9.08h-2.53v-8.71h0Z"/>
    <path class="cls-4" d="M528.93,153.92c4.13,0,7.3,3.09,7.3,7.9s-3.17,8.01-7.3,8.01c-2.81,0-4.81-1.52-5.76-3.09v10.15h-2.56v-22.71h2.56v2.84c.93-1.63,2.95-3.09,5.76-3.09h0ZM528.39,156.13c-2.78,0-5.23,2.14-5.23,5.71s2.45,5.73,5.23,5.73,5.23-2.13,5.23-5.76-2.39-5.68-5.23-5.68h0Z"/>
    <path class="cls-4" d="M548.2,153.92c2.87,0,4.84,1.46,5.73,3.06v-2.81h2.59v15.4h-2.59v-2.87c-.93,1.66-2.93,3.12-5.76,3.12-4.1,0-7.28-3.23-7.28-8.01s3.18-7.9,7.31-7.9h0ZM548.71,156.13c-2.81,0-5.2,2.05-5.2,5.68s2.39,5.76,5.2,5.76,5.23-2.11,5.23-5.73-2.42-5.71-5.23-5.71h0Z"/>
    <path class="cls-4" d="M574.37,160.86c0-3.15-1.72-4.75-4.3-4.75s-4.41,1.63-4.41,4.95v8.52h-2.56v-15.4h2.56v2.19c1.01-1.6,2.87-2.47,4.95-2.47,3.57,0,6.3,2.19,6.3,6.6v9.08h-2.53v-8.71h0Z"/>
    <path class="cls-4" d="M593.96,154.17h2.64l-9.27,22.65h-2.64l3.04-7.42-6.21-15.24h2.84l4.83,12.48,4.78-12.48Z"/>
  </g>
  <g>
    <path class="cls-1" d="M614.17,73.68h-2.27v-11.97h-4.09v-1.95h10.47v1.95h-4.09v11.97h0Z"/>
    <path class="cls-1" d="M626.42,73.68l-4.04-11.63h-.08c.11,1.73.16,3.35.16,4.86v6.77h-2.06v-13.92h3.21l3.87,11.08h.05l3.98-11.08h3.22v13.92h-2.19v-6.88c0-.69.02-1.59.05-2.7.04-1.11.07-1.78.09-2.02h-.08l-4.18,11.61h-2.01.01Z"/>
  </g>
</svg>